<svg width="858" height="447" viewBox="0 0 858 447" fill="none" xmlns="http://www.w3.org/2000/svg">
<path d="M238.596 82.4096C249.904 90.597 259.297 101.144 266.126 113.319C271.356 122.348 277.853 138.89 294.646 149.927C303.373 155.652 318.926 150.89 318.926 150.89C318.926 150.89 335.224 144.422 348.41 145.165C357.569 145.938 366.245 149.601 373.186 155.625L395.54 99.9977C395.54 99.9977 400.303 88.1071 409.305 105.227C418.307 122.348 424.28 141.009 440.936 143.762C457.591 146.514 480.88 137.321 488.01 133.275C495.14 129.229 511.795 121.88 515.126 123.779C515.126 123.779 512.374 70.2713 520.357 71.9503C528.34 73.6293 531.369 94.768 525.12 119.733C525.12 119.733 522.972 129.476 525.34 133.055C528.754 137.596 532.431 141.934 536.351 146.046C590.501 105.31 596.365 22.4339 596.365 22.4339H200.771C203.8 34.2694 207.654 51.2795 210.049 54.3622C218.316 64.9024 227.911 74.3296 238.596 82.4096Z" fill="#4F4FEC"/>
<path d="M167.68 345.461C191.437 330.542 223.867 308.165 239.256 297.403L311.877 168.313H366.137L367.679 167.295C371.037 165.396 373.405 164.928 367.679 159.671C366.017 158.085 364.168 156.708 362.173 155.57C353.116 150.973 327.596 156.891 314.906 159.643C311.854 160.629 308.691 161.23 305.491 161.432C292.497 161.432 282.146 150.423 275.374 141.092C272.036 137.405 269.101 133.373 266.619 129.064C261.774 120.641 261.692 116.375 256.792 109.163C253.922 105.242 250.626 101.651 246.964 98.4565C240.205 91.9752 232.982 85.9957 225.353 80.5656C225.353 80.5656 205.34 65.8125 202.945 54.3899C201.32 46.5454 199.696 32.3703 196.668 22.4065H142.546C15.086 29.1225 0 168.313 0 168.313H142.546L0 411.437C81.8441 458.971 145.436 419.694 179.27 387.545C175.313 385.863 171.444 383.98 167.68 381.903C148.657 371.581 158.678 351.131 167.68 345.461Z" fill="#4F4FEC"/>
<path d="M857.999 57.2799C733.897 -14.8066 651.723 112.631 651.723 112.631L604.924 195.783C612.105 199.145 618.02 204.721 621.799 211.692C634.435 232.665 612.494 256.226 612.494 256.226C612.494 256.226 584.167 296.495 501.965 317.22C419.763 337.946 374.753 366.764 374.753 366.764C374.753 366.764 323.025 393.436 271.656 396.656C266.227 412.713 262.635 429.334 260.947 446.2H715.453C842.885 439.484 857.999 300.32 857.999 300.32H715.453L857.999 57.2799Z" fill="#4F4FEC"/>
</svg>
