<svg xmlns="http://www.w3.org/2000/svg" viewBox="0 0 108.67 101.01"><defs><style>.cls-1{fill:#fff;}</style></defs><g id="Layer_2" data-name="Layer 2"><g id="OBJECTS"><path class="cls-1" d="M10.63,41.84h14.2V29.55H12.29V12.29H60V20.7h12.3V10.8A10.8,10.8,0,0,0,61.49,0H10.8A10.79,10.79,0,0,0,0,10.8V31.22A10.63,10.63,0,0,0,10.63,41.84Z"/><path class="cls-1" d="M72.29,60.59V41.92H90.48v8.41h12.29V40.42A10.81,10.81,0,0,0,92,29.62H41.28a10.81,10.81,0,0,0-10.79,10.8v13H42.78V41.92H60V59.1H42.78v0H30.49v0H12.29V51H0v9.61a10.81,10.81,0,0,0,10.8,10.8H61.49A10.81,10.81,0,0,0,72.29,60.59Z"/><path class="cls-1" d="M90.48,88.72H42.78V77H30.49V90.22A10.8,10.8,0,0,0,41.28,101H92a10.8,10.8,0,0,0,10.8-10.79V80.7H90.48Z"/><path class="cls-1" d="M107.63,64.9a6.29,6.29,0,0,0-1.16-1,28.49,28.49,0,0,0-2.84-2.48,7.19,7.19,0,0,1-2.09-2.35,21,21,0,0,1,.36-2.73c0-.51-.33-1-.58-1s-.36,2.84-.43,3.13,0,.47-.79.9a21.62,21.62,0,0,1-4.83,1c-.5,0-1.37-1.7-1.73-2.7s-.83-.62-.83-.62l-1.83,3.53a10.72,10.72,0,0,0-.3,1.08c0,.18-.21.51-.68,1s-.14.64-.64,1-.36,1.08-.44,1-1,.61-1.26,1.19-1.08,1.58-2.88,2.85-9.33,6.87-9.33,6.87C74.49,80,88.18,78,90.58,76.75s7.79-3.35,8.72-3.64,8-3.31,8.47-4a8.89,8.89,0,0,0,.9-3.1C108.67,65.34,107.91,65.23,107.63,64.9Z"/></g></g></svg>